<svg xmlns="http://www.w3.org/2000/svg" viewBox="0 0 36.256 36.256">
  <defs>
    <style>
      .cls-1 {
        fill: none;
        stroke: #fff;
        stroke-width: 2px;
      }
    </style>
  </defs>
  <path id="Union_2" data-name="Union 2" class="cls-1" d="M-2938.3,17.6a9.156,9.156,0,0,1-2.7-6.516,9.155,9.155,0,0,1,2.7-6.516,9.155,9.155,0,0,1,6.516-2.7,9.154,9.154,0,0,1,6.516,2.7,9.169,9.169,0,0,1,2.285,3.77h7.851a2.975,2.975,0,0,1,2.976,2.975,2.976,2.976,0,0,1-2.976,2.976h-7.782q-.112,0-.221-.008a9.186,9.186,0,0,1-2.132,3.319,9.154,9.154,0,0,1-6.516,2.7A9.155,9.155,0,0,1-2938.3,17.6Zm2.18-6.516a4.341,4.341,0,0,0,4.336,4.336,4.342,4.342,0,0,0,4.337-4.336,4.341,4.341,0,0,0-4.337-4.336A4.341,4.341,0,0,0-2936.121,11.087Z" transform="translate(2095.371 2079.692) rotate(45)"/>
</svg>
